PathFileType	4	(X/Y/Z)	RBDS022\RBDS022runT45.trc
DataRate	CameraRate	NumFrames	NumMarkers	Units	OrigDataRate	OrigDataStartFrame	OrigNumFrames
150.000000	150.000000	4	32	mm	150.000000	2812	4500
Frame#	Time	L.ASIS			L.Heel.Bottom			L.Heel.Lateral			L.Heel.Top			L.Iliac.Crest			L.MT1			L.MT5			L.PSIS			L.Shank.Bottom.Lateral			L.Shank.Bottom.Medial			L.Shank.Top.Lateral			L.Shank.Top.Medial			L.Thigh.Bottom.Lateral			L.Thigh.Bottom.Medial			L.Thigh.Top.Lateral			L.Thigh.Top.Medial			R.ASIS			R.Heel.Bottom			R.Heel.Lateral			R.Heel.Top			R.Iliac.Crest			R.MT1			R.MT5			R.PSIS			R.Shank.Bottom.Lateral			R.Shank.Bottom.Medial			R.Shank.Top.Lateral			R.Shank.Top.Medial			R.Thigh.Bottom.Lateral			R.Thigh.Bottom.Medial			R.Thigh.Top.Lateral			R.Thigh.Top.Medial			
		X1	Y1	Z1	X2	Y2	Z2	X3	Y3	Z3	X4	Y4	Z4	X5	Y5	Z5	X6	Y6	Z6	X7	Y7	Z7	X8	Y8	Z8	X9	Y9	Z9	X10	Y10	Z10	X11	Y11	Z11	X12	Y12	Z12	X13	Y13	Z13	X14	Y14	Z14	X15	Y15	Z15	X16	Y16	Z16	X17	Y17	Z17	X18	Y18	Z18	X19	Y19	Z19	X20	Y20	Z20	X21	Y21	Z21	X22	Y22	Z22	X23	Y23	Z23	X24	Y24	Z24	X25	Y25	Z25	X26	Y26	Z26	X27	Y27	Z27	X28	Y28	Z28	X29	Y29	Z29	X30	Y30	Z30	X31	Y31	Z31	X32	Y32	Z32	

2813	18.74666666666667	2124.001772286273	942.7921866026204	870.6488633553139	1461.595710564681	467.1162422169707	973.1619553643558	1478.781263426237	443.7022383026543	922.793537310474	1505.258510036734	454.9456277377354	971.8518274293859	2065.865694899303	1042.981689362642	830.4563691990531	1458.617111364504	247.7685018444989	968.7896881711064	1447.609114917688	300.1641987052963	867.5731960212736	1958.070530396055	997.8978580286166	937.5636553612683	1587.854899931956	419.1410342763984	890.8011300369758	1580.008856157429	458.8262410388971	929.3540637674053	1659.896072830606	450.9937952160496	873.6094582698058	1652.777602732247	490.2339414865475	909.9608282728691	1956.878159722576	582.2678470943674	837.8439442209402	1898.929953945551	606.0873344985165	874.9516634969182	1982.899413019291	685.339620715673	812.9204004638507	1926.815984790661	708.1598349971728	848.578404797888	2104.817125370484	963.9764945974417	1102.411851558467	2268.220014163509	21.7565288253058	987.5633448223786	2282.647557363906	40.49758511836059	1040.317532914288	2259.006973292804	63.76654544562013	995.6162879750458	2040.44037011475	1038.895571690289	1144.188947440687	2457.864612973409	116.4229194879785	993.808234677839	2428.51780675487	75.39340970705119	1097.135222912701	1949.859214678739	997.2657759853802	1025.831743235514	2253.175504733701	167.9217356923303	1072.05791531052	2227.457898056647	173.6341666908589	1027.17711973699	2227.689073319088	245.9173372554623	1094.392232220558	2198.927417297654	246.3760219271694	1049.654614614431	2164.983112661429	598.2378925247624	1147.373122189778	2110.882331074972	577.2976013039901	1105.996152841853	2112.648476611127	694.0457035815847	1167.574015228163	2059.983616739416	672.2331685885766	1129.892079990647	
2814	18.75333333333333	2124.627719330275	938.7185693587688	871.6326499034639	1473.652291484383	482.1882506224975	972.3365224468911	1490.022752110187	457.9066829463173	922.1923725042739	1516.702580888573	467.9874808939489	971.3372715017366	2062.952397682874	1037.137974623508	829.6578722950147	1460.731258431251	263.338204988421	968.5369823704561	1452.6865314851	315.9629598533681	867.1062051969315	1957.320569265175	991.4119275482768	936.2751281661272	1597.711275500621	428.0161895458172	890.5086148021816	1591.656633843769	468.0631275524188	929.0136453366219	1671.328378512909	456.2917420634127	873.604788649996	1665.956256545593	495.8435831082858	909.8529618079544	1965.998116468343	573.8934772371844	837.4094697623331	1907.761149634386	595.8659192549434	875.3033673220045	1988.762576224762	677.9758028624948	813.0351701795379	1932.371247041164	698.928632136751	849.2577322945365	2102.502864311667	961.3975998385038	1103.933334124741	2250.88554287006	21.52331154818584	984.4551465475396	2266.080672683154	40.13544665173844	1036.962032762463	2244.22977437851	63.71348787740475	991.7094934360499	2037.522884851245	1035.3996828812	1144.04194945369	2444.000863146743	105.7875177687516	991.4084483963795	2412.336929956477	68.15632537390894	1095.014879318649	1948.040405716811	992.074553486405	1024.233803166654	2242.762230909247	164.5517864688525	1069.444257593314	2216.944800208398	171.3158080082103	1024.885512610574	2219.699038955271	242.8983861616034	1092.488724376323	2190.713737478279	244.5784045407935	1048.032234860438	2163.26087302631	595.8996606131251	1146.995935027479	2109.185123874237	574.7137130045736	1105.771604434174	2110.46344308663	691.3713507805276	1167.366172284062	2057.895867659437	669.4234754946427	1129.65675489862	
2815	18.76	2125.087844353783	934.1907896649236	872.7982164406735	1487.527424551225	495.5193138881443	971.279554970052	1503.118269346725	470.3496066583377	921.3524717242078	1529.989090520348	479.4380511978334	970.5443004024228	2060.952788491723	1030.460692330281	828.7701907568551	1465.334550369024	277.3345293997205	968.2287062360548	1460.019251749299	329.9236328202672	866.5844399887832	1956.389990947804	984.5673702010765	934.7937928027337	1609.290066513828	435.5859917272413	889.9746588859297	1604.93852253981	475.8397492501695	928.4751364581962	1684.143808411019	460.4938040542351	873.3310290728031	1680.437875649634	500.1814592517622	909.5359018273847	1975.335579355422	565.6892381786713	836.9136790629888	1916.955077864034	585.6919717400008	875.772589713608	1994.604479745702	670.6847506315562	813.0695780600391	1938.08614571564	689.6791261855175	850.0474712265976	2099.97775457797	958.5369645041983	1105.557017744751	2230.105101315123	21.60925988473664	981.6228261625876	2246.147779864579	40.20407581600289	1033.793297466161	2226.377846834941	64.00828061072359	987.8478098647491	2034.213784881836	1031.38978193594	1143.876139980674	2427.295535755025	93.92278582019001	989.2350596398869	2392.868787736554	60.61582345810338	1093.269619976745	1946.109033712363	986.5234839058612	1022.376896844459	2230.484041147216	161.3300854308982	1066.966708483675	2204.431617811685	169.3650824261693	1022.920641823897	2210.566851856434	240.0828332548569	1090.830142726037	2181.180785220681	243.2363799354083	1046.860332954061	2161.902760266375	593.5116129982537	1146.646668092926	2107.790418792078	571.9437627395656	1105.735082323844	2108.570516201508	688.6206488186497	1167.159987782645	2056.019622290006	666.4007464229775	1129.623800944794	
2816	18.76666666666667	2125.30907669261	929.2732181553124	874.1514848260676	1502.84572709322	506.8982942431982	970.0161510027368	1517.743280329436	480.8709255783998	920.2887118055278	1544.770931691944	489.1397518102181	969.5160481423242	2059.971027195988	1023.130091194251	827.8520690421344	1472.32623519148	289.4600659688793	967.7523278296227	1469.48096847572	341.8257306276071	865.9145764142802	1955.254419337146	977.6025498530773	933.1933696673245	1622.387464549982	441.7506138703239	889.2144187964379	1619.631183258922	482.0934532883996	927.7421991072002	1698.179821099719	463.5482245124942	872.783126582964	1696.042895840696	503.2301786245317	909.0004071240133	1984.932656981422	557.7845286865172	836.3460113495396	1926.498117961636	575.6856254948416	876.2413950409704	2000.493282645229	663.5742021503009	813.0286791118288	1943.95304072919	680.5131746049145	850.8397455507588	2097.25391954518	955.430469426629	1107.255777041648	2206.492780907447	22.01343785368779	979.1641189983769	2223.422548532918	40.70514596521461	1030.922222117353	2205.870183029455	64.61369986216127	984.1933447072411	2030.562897327052	1026.877649631816	1143.70216567234	2408.008363538813	81.67451109474423	987.2642391854729	2370.621887728983	53.35288036324879	1091.868329607719	1944.073665661377	980.7786143669264	1020.336923557592	2216.534115190666	158.4407450862784	1064.691150944426	2190.129944919926	167.9335026566801	1021.339189180543	2200.40487723045	237.5915283018598	1089.447047436107	2170.460641667074	242.430645036892	1046.164730013766	2160.782380902195	591.0368847258351	1146.413820072875	2106.586745745722	569.0093114413747	1105.905664413176	2106.891997624606	685.7896977895294	1167.049258537956	2054.286378660157	663.2028354825572	1129.835553582037	
